<svg xmlns="http://www.w3.org/2000/svg" width="42.5" height="45.073" viewBox="367.5 866 42.5 45.073"><g data-name="Pen Icon"><path d="m381.5 871.626 2.163 1.374-.574-2.59 1.911-1.743-2.516-.224L381.5 866l-.984 2.443-2.516.224 1.911 1.743-.574 2.59 2.163-1.374ZM393 908.822l1.854 1.178-.492-2.22 1.638-1.494-2.157-.192L393 904l-.843 2.094-2.157.192 1.638 1.494-.492 2.22 1.854-1.178ZM405 892.037l3.09 1.963-.82-3.7 2.73-2.49-3.595-.32L405 884l-1.405 3.49-3.595.32 2.73 2.49-.82 3.7 3.09-1.963Z" fill-rule="evenodd" data-name="star-filled-svgrepo-com"/><path d="m402.95 873-8.24 2.414 3.336-2.275c-2.106.48-4.766 1.418-8.11 2.931l-5.457 5.733 1.937-4.004c-1.873 1.05-3.858 2.425-5.771 4.037l-1.27 5.207-.273-3.855c-1.89 1.75-3.666 3.693-5.137 5.742-1.545 2.147-2.753 4.414-3.358 6.674l-2.26-1.523c.202 1.92.828 3.588 1.855 5.119l-2.702-.834c.614 1.903 1.618 3.134 3.316 4.13-.951 2.697-1.397 5.515-1.876 8.326l1.478.25c1.716-17.226 13.82-28.208 24.759-33.073l.554 1.407c-9.781 4.414-17.385 11.865-21.364 22.604 1.455.008 2.878-.17 4.196-.51l.394-4.932 1.053 4.494c.876-.323 1.68-.712 2.395-1.166l-1.664-3.523 2.637 2.819a7.106 7.106 0 0 0 1.575-1.742c2.443-3.847 5-7.67 10.031-10.868l-3.673-1.312 5.634.17c.916-.47 1.881-1.045 2.612-1.588l-3.994-.324 6.004-1.425c.466-.47.9-.964 1.294-1.458 1.39-1.777 2.33-3.626 2.106-5.308a2.75 2.75 0 0 0-1.415-2.076 4.356 4.356 0 0 0-.603-.261Z" fill-rule="evenodd" data-name="feather-svgrepo-com (1)"/></g></svg>