<svg xmlns="http://www.w3.org/2000/svg" width="45" height="45.953" viewBox="268.18 866 45 45.953"><g data-name="Same Suggestion Page icon"><g data-name="Groupe 2"><g data-name="Groupe 1"><path d="M311.408 880.04a23.007 23.007 0 0 0-8.155-10.11A22.057 22.057 0 0 0 290.68 866c-3.099 0-6.06.644-8.751 1.81-4.038 1.747-7.472 4.66-9.9 8.327a23.198 23.198 0 0 0-3.849 12.84c0 3.164.631 6.188 1.772 8.936a23.007 23.007 0 0 0 8.155 10.11 22.057 22.057 0 0 0 12.573 3.93c3.098 0 6.06-.644 8.751-1.809 4.038-1.748 7.472-4.661 9.9-8.328a23.198 23.198 0 0 0 3.849-12.84 23.28 23.28 0 0 0-1.772-8.936Zm-2.762 16.678a19.96 19.96 0 0 1-7.073 8.767 19.097 19.097 0 0 1-10.893 3.405c-2.691 0-5.25-.558-7.58-1.567-3.497-1.512-6.48-4.043-8.586-7.223a20.085 20.085 0 0 1-3.334-11.123c0-2.749.547-5.361 1.534-7.742a19.96 19.96 0 0 1 7.073-8.767 19.097 19.097 0 0 1 10.893-3.405c2.691 0 5.25.559 7.581 1.567 3.496 1.512 6.48 4.043 8.585 7.223a20.086 20.086 0 0 1 3.334 11.124c0 2.748-.547 5.36-1.534 7.741Z" fill-rule="evenodd" data-name="Tracé 4"/></g></g><g data-name="Groupe 4"><g data-name="Groupe 3"><path d="M302.525 884.846c0-1.499-.622-2.713-1.389-2.713-.27 0-.545.162-.77.455-1.45 1.888-3.116 2.83-4.786 2.83-1.669 0-3.335-.942-4.785-2.83v-.001c-1.915-2.493-4.122-3.742-6.326-3.741-2.204 0-4.411 1.248-6.326 3.742-.373.487-.618 1.316-.618 2.258 0 1.499.622 2.714 1.389 2.714.27 0 .545-.163.77-.456 1.45-1.888 3.116-2.83 4.785-2.83 1.67 0 3.336.942 4.785 2.83 1.915 2.494 4.122 3.743 6.326 3.742 2.204 0 4.412-1.249 6.326-3.742.373-.487.619-1.316.619-2.258Z" fill-rule="evenodd" data-name="Tracé 5"/></g></g><g data-name="Groupe 6"><g data-name="Groupe 5"><path d="M278.18 894.822c.019 1.482.655 2.69 1.422 2.7.271.003.543-.153.765-.44 1.427-1.85 3.081-2.76 4.75-2.74 1.67.02 3.347.973 4.82 2.857l.001.001c1.945 2.488 4.167 3.75 6.37 3.776 2.205.028 4.397-1.18 6.28-3.621.368-.477.603-1.294.592-2.225-.019-1.48-.655-2.69-1.422-2.7-.271-.002-.543.155-.765.442-1.427 1.848-3.081 2.76-4.75 2.74-1.67-.022-3.347-.974-4.82-2.858-1.945-2.489-4.168-3.75-6.372-3.777-2.204-.028-4.396 1.18-6.28 3.621-.367.477-.602 1.293-.59 2.224Z" fill-rule="evenodd" data-name="Tracé 6"/></g></g></g></svg>  